HIERARCHY
ROOT Hips
{
	OFFSET	0.00	0.00	0.00
	CHANNELS 6 Xposition Yposition Zposition Zrotation Xrotation Yrotation
	JOINT LeftUpLeg
	{
		OFFSET	 0.126116	-0.065224	 0.014019
		CHANNELS 3 Zrotation Xrotation Yrotation
		JOINT LeftLeg
		{
			OFFSET	 0.000000	 0.569914	 0.000000
			CHANNELS 3 Zrotation Xrotation Yrotation
			JOINT LeftFoot
			{
				OFFSET	 0.000000	 0.544423	 0.000000
				CHANNELS 3 Zrotation Xrotation Yrotation
				JOINT LeftToeBase
				{
					OFFSET	 0.000000	 0.207117	 0.000000
					CHANNELS 3 Zrotation Xrotation Yrotation
					End Site
					{
						OFFSET	 0.000000	 0.207117	 0.000000
					}
				}
			}
		}
	}
	JOINT RightUpLeg
	{
		OFFSET	-0.124023	-0.065224	 0.008373
		CHANNELS 3 Zrotation Xrotation Yrotation
		JOINT RightLeg
		{
			OFFSET	 0.000000	 0.570047	 0.000000
			CHANNELS 3 Zrotation Xrotation Yrotation
			JOINT RightFoot
			{
				OFFSET	 0.000000	 0.544354	 0.000000
				CHANNELS 3 Zrotation Xrotation Yrotation
				JOINT RightToeBase
				{
					OFFSET	 0.000000	 0.207540	 0.000000
					CHANNELS 3 Zrotation Xrotation Yrotation
					End Site
					{
						OFFSET	 0.000000	 0.207540	 0.000000
					}
				}
			}
		}
	}
	JOINT Spine
	{
		OFFSET	 0.000184	 0.117403	 0.007763
		CHANNELS 3 Zrotation Xrotation Yrotation
		JOINT Spine1
		{
			OFFSET	 0.000000	 0.137269	 0.000000
			CHANNELS 3 Zrotation Xrotation Yrotation
			JOINT Spine2
			{
				OFFSET	 0.000000	 0.156879	 0.000000
				CHANNELS 3 Zrotation Xrotation Yrotation
				JOINT LeftShoulder
				{
					OFFSET	 0.080501	 0.160143	 0.002496
					CHANNELS 3 Zrotation Xrotation Yrotation
					JOINT LeftArm
					{
						OFFSET	 0.000000	 0.164363	 0.000000
						CHANNELS 3 Zrotation Xrotation Yrotation
						JOINT LeftForeArm
						{
							OFFSET	 0.000000	 0.364576	 0.000000
							CHANNELS 3 Zrotation Xrotation Yrotation
							JOINT LeftHand
							{
								OFFSET	 0.000000	 0.360812	 0.000000
								CHANNELS 3 Zrotation Xrotation Yrotation
								JOINT LeftHandIndex1
								{
									OFFSET	 0.000000	 0.086006	 0.000000
									CHANNELS 3 Zrotation Xrotation Yrotation
									JOINT LeftHandIndex2
									{
										OFFSET	 0.000000	 0.047237	 0.000000
										CHANNELS 3 Zrotation Xrotation Yrotation
										JOINT LeftHandIndex3
										{
											OFFSET	-0.004284	 0.038165	 0.000551
											CHANNELS 3 Zrotation Xrotation Yrotation
											End Site
											{
												OFFSET	-0.004284	 0.038165	 0.000551
											}
										}
									}
								}
							}
						}
					}
				}
				JOINT Neck
				{
					OFFSET	 0.000000	 0.176489	 0.000000
					CHANNELS 3 Zrotation Xrotation Yrotation
					JOINT Head
					{
						OFFSET	 0.000000	 0.077941	 0.001747
						CHANNELS 3 Zrotation Xrotation Yrotation
						End Site
						{
							OFFSET	 0.000000	 0.077941	 0.001747
						}
					}
				}
				JOINT RightShoulder
				{
					OFFSET	-0.080363	 0.159706	-0.000306
					CHANNELS 3 Zrotation Xrotation Yrotation
					JOINT RightArm
					{
						OFFSET	 0.000000	 0.164196	 0.000000
						CHANNELS 3 Zrotation Xrotation Yrotation
						JOINT RightForeArm
						{
							OFFSET	 0.000000	 0.365611	 0.000000
							CHANNELS 3 Zrotation Xrotation Yrotation
							JOINT RightHand
							{
								OFFSET	 0.000000	 0.360648	 0.000000
								CHANNELS 3 Zrotation Xrotation Yrotation
								JOINT RightHandIndex1
								{
									OFFSET	 0.000000	 0.069977	 0.000000
									CHANNELS 3 Zrotation Xrotation Yrotation
									JOINT RightHandIndex2
									{
										OFFSET	 0.000000	 0.052305	 0.000000
										CHANNELS 3 Zrotation Xrotation Yrotation
										JOINT RightHandIndex3
										{
											OFFSET	 0.009002	 0.042196	 0.000782
											CHANNELS 3 Zrotation Xrotation Yrotation
											End Site
											{
												OFFSET	 0.009002	 0.042196	 0.000782
											}
										}
									}
								}
							}
						}
					}
				}
			}
		}
	}
}
MOTION
Frames:    12
Frame Time: 0.03333334
 0.436661	 1.273982	 0.407289	 0.535095	-2.523986	-177.238400	 175.358700	 5.888568	 16.553140	 3.351609	-12.411190	 5.992015	 5.734057	 69.414140	-1.674754	 1.292262	 28.425850	-2.713146	-178.004000	 8.003156	-14.964840	-2.362305	-12.103640	 0.727225	 1.636763	 67.859080	-5.932304	-1.288183	 28.361890	 2.710176	-0.101852	 6.627122	-2.048037	 0.606515	-6.953119	-1.145277	 0.020078	 8.024275	 2.904347	-117.635000	-0.833494	 89.934490	-2.540516	-0.008393	-7.475174	 40.310990	-3.013513	 35.334030	-16.947980	 13.019440	-3.057589	-6.580301	 5.266122	 0.000000	 0.000000	 0.000000	 0.000000	 0.000000	 0.000000	 0.000000	 4.917651	 27.500830	 1.611209	-3.999400	-16.360740	 0.872439	 116.564900	-0.516714	-90.542640	-1.621620	 5.994759	 19.141540	-25.823130	 0.595422	-56.717220	-5.870942	-5.273273	 9.384188	 15.208500	 5.323790	 0.000000	 0.000000	 0.000000	 0.000000	 0.000000	 0.000000	 0.000000
 0.436731	 1.274108	 0.409434	 0.554509	-2.953676	-177.196500	 175.349500	 6.459333	 16.648110	 3.361876	-12.448000	 6.098283	 5.719923	 69.345820	-1.881547	 1.292262	 28.425850	-2.713146	-178.031400	 8.499064	-14.960120	-2.340849	-11.996930	 0.580334	 1.491825	 67.687680	-5.580625	-1.288183	 28.361890	 2.710176	-0.138324	 6.827264	-2.013333	 0.601987	-7.515580	-1.163425	 0.046028	 8.882130	 2.881685	-118.088400	-0.971338	 89.871940	-2.705281	 0.307615	-6.273149	 41.546740	-3.089254	 34.211390	-16.619410	 13.077210	-2.133583	-6.580301	 5.266122	 0.000000	 0.000000	 0.000000	 0.000000	 0.000000	 0.000000	 0.000000	 5.239569	 28.492230	 1.342490	-4.034209	-16.855690	 0.926816	 117.280000	-0.713368	-90.472660	-1.596425	 6.271335	 18.588640	-27.016220	 0.620877	-55.871220	-6.146010	-4.088822	 7.486617	 15.208500	 5.323790	 0.000000	 0.000000	 0.000000	 0.000000	 0.000000	 0.000000	 0.000000
 0.436755	 1.274042	 0.412724	 0.590561	-3.511351	-177.140900	 175.290900	 7.314075	 16.777070	 3.436059	-12.713530	 6.249537	 5.694854	 69.355220	-2.172131	 1.292262	 28.425850	-2.713146	-178.023600	 9.236886	-14.956590	-2.347056	-12.027800	 0.384737	 1.350949	 67.535570	-5.144023	-1.288183	 28.361890	 2.710176	-0.153009	 7.189752	-1.967545	 0.555307	-8.184003	-1.190735	 0.098761	 9.976130	 2.855619	-118.682600	-1.151170	 89.788350	-2.861991	 1.137750	-4.507043	 43.241350	-3.190833	 32.835140	-16.497410	 12.809690	-1.129832	-6.580301	 5.266122	 0.000000	 0.000000	 0.000000	 0.000000	 0.000000	 0.000000	 0.000000	 5.674428	 29.789790	 0.976548	-4.079592	-17.503490	 1.000585	 118.217500	-0.969730	-90.377230	-1.695058	 7.043034	 17.798560	-28.489980	 0.652030	-54.903260	-6.163583	-2.888802	 5.147581	 15.208500	 5.323790	 0.000000	 0.000000	 0.000000	 0.000000	 0.000000	 0.000000	 0.000000
 0.436691	 1.273468	 0.419904	 0.679181	-4.547080	-177.035300	 175.100600	 9.106405	 17.027600	 3.678296	-13.576490	 6.554454	 5.623476	 69.530490	-2.734689	 1.292262	 28.425850	-2.713146	-177.928600	 10.787950	-14.955620	-2.420842	-12.394190	 0.016352	 1.190706	 67.373950	-4.383871	-1.288183	 28.361890	 2.710176	-0.161901	 7.904300	-1.870799	 0.468683	-8.887634	-1.239903	 0.200437	 11.776300	 2.815066	-119.797500	-1.485960	 89.626600	-2.360455	 3.412045	-0.810267	 45.535610	-3.323788	 30.442810	-16.598470	 11.414260	 0.201065	-6.580301	 5.266122	 0.000000	 0.000000	 0.000000	 0.000000	 0.000000	 0.000000	 0.000000	 6.532863	 32.217200	 0.245011	-4.163934	-18.715430	 1.146656	 119.976900	-1.446136	-90.186990	-2.845316	 9.127119	 16.256620	-29.903330	 0.681431	-53.464420	-5.768401	-1.732949	 1.151903	 15.208500	 5.323790	 0.000000	 0.000000	 0.000000	 0.000000	 0.000000	 0.000000	 0.000000
 0.450023	 1.250492	 0.521699	 1.655824	-21.262850	-173.300400	 169.497800	 36.297580	 22.232950	 6.409026	-22.791350	 14.779330	 11.086020	 69.111330	-18.233760	 1.292262	 28.425850	-2.713146	-177.556300	 38.641170	-10.310370	-4.664033	-22.930700	-4.637421	 2.870374	 67.532930	 1.929614	-1.288183	 28.361890	 2.710176	 0.396304	 11.248510	-0.826654	 0.550128	 0.915858	-0.870264	 1.160881	 11.711960	 0.686134	-121.907700	 10.636300	 95.723410	 13.243700	 16.317290	 7.740544	 48.751820	-3.501167	 22.322910	-5.196222	-1.067130	-1.521377	-6.580301	 5.266122	 0.000000	 0.000000	 0.000000	 0.000000	 0.000000	 0.000000	 0.000000	 7.262267	 34.883140	-2.529305	-3.139982	-26.139750	 0.519644	 124.929100	 9.802140	-96.295730	-23.642240	 22.676480	 12.727870	-27.671090	 0.634791	-40.424140	-10.666770	-6.996629	-7.546113	 15.208500	 5.323790	 0.000000	 0.000000	 0.000000	 0.000000	 0.000000	 0.000000	 0.000000
 0.454586	 1.243585	 0.544249	 1.741863	-25.091520	-172.714800	 168.062500	 41.988460	 23.037140	 6.622030	-23.465070	 16.353400	 11.234610	 68.355770	-20.359700	 1.292262	 28.425850	-2.713146	-177.879100	 44.916310	-9.250593	-5.029871	-24.520110	-5.671017	 3.257054	 67.050060	 2.992446	-1.288183	 28.361890	 2.710176	 0.492602	 11.377250	-0.574492	 1.017509	 3.769285	-0.608718	 1.233408	 10.424020	 0.351217	-120.119600	 13.554060	 96.917020	 17.217930	 15.986150	 5.785367	 49.158170	-3.522764	 22.308630	-2.335573	-3.755707	-1.897087	-6.580301	 5.266122	 0.000000	 0.000000	 0.000000	 0.000000	 0.000000	 0.000000	 0.000000	 6.475627	 33.568020	-2.516238	-2.882754	-27.570500	 0.208081	 123.723600	 12.955190	-97.770200	-28.854360	 22.255760	 15.226680	-26.845680	 0.617306	-38.072810	-13.336890	-10.262450	-6.377188	 15.208500	 5.323790	 0.000000	 0.000000	 0.000000	 0.000000	 0.000000	 0.000000	 0.000000
 0.458670	 1.230247	 0.565213	 0.159981	-27.761500	-173.966300	 164.839900	 46.905740	 23.341810	 7.652827	-26.623830	 17.970460	 12.071330	 69.118420	-22.703290	 1.292262	 28.425850	-2.713146	-178.213500	 50.987770	-9.742070	-6.160566	-29.175960	-9.883151	-3.782455	 68.998230	 11.964970	-1.288183	 28.361890	 2.710176	 0.477723	 12.599040	 0.084352	 0.996523	 4.013544	 0.084168	 1.168352	 11.078920	-0.095313	-120.471300	 16.468390	 98.409910	 20.727460	 13.729140	 3.343203	 48.663160	-3.496409	 21.094430	 1.802778	-7.858761	-0.918759	-6.580301	 5.266122	 0.000000	 0.000000	 0.000000	 0.000000	 0.000000	 0.000000	 0.000000	 4.459695	 34.557720	-2.740280	-1.636950	-31.686650	-0.368806	 122.217700	 16.230310	-99.164730	-28.482960	 19.552610	 16.513620	-30.100880	 0.685610	-34.838610	-15.177470	-13.480160	-4.304021	 15.208500	 5.323790	 0.000000	 0.000000	 0.000000	 0.000000	 0.000000	 0.000000	 0.000000
 0.464784	 1.206529	 0.582253	-2.401020	-31.080650	-175.085700	 158.123800	 53.323270	 25.971460	 9.467930	-31.765740	 21.294680	 15.295710	 70.023570	-27.873120	 1.292262	 28.425850	-2.713146	-179.523400	 59.422100	-9.729785	-8.226503	-36.665520	-16.011560	-16.115290	 71.338350	 26.494450	-1.288183	 28.361890	 2.710176	 0.267454	 13.731000	 0.193155	 0.782158	 7.531091	 0.050883	 0.492218	 10.014430	-0.250047	-121.001900	 19.206040	 99.878710	 24.471910	 8.875736	 0.310079	 46.707730	-3.389710	 19.474370	 3.246580	-11.513820	-0.277236	-6.580301	 5.266122	 0.000000	 0.000000	 0.000000	 0.000000	 0.000000	 0.000000	 0.000000	 6.514109	 37.844430	-3.915748	-2.171757	-37.589490	-0.227213	 126.082700	 20.687770	-102.460200	-29.704440	 11.972200	 16.720090	-29.269550	 0.668325	-31.493560	-17.409200	-16.221650	-5.741735	 15.208500	 5.323790	 0.000000	 0.000000	 0.000000	 0.000000	 0.000000	 0.000000	 0.000000
 0.470181	 1.175395	 0.593226	-5.015402	-34.296360	-176.336100	 149.286500	 59.889960	 30.860900	 12.230520	-38.570100	 24.187840	 17.066640	 72.168370	-31.068010	 1.292262	 28.425850	-2.713146	-179.121900	 67.881030	-10.932530	-11.045050	-44.906490	-20.222170	-24.516920	 73.893020	 35.949120	-1.288183	 28.361890	 2.710176	-0.047951	 14.542910	-0.116979	-0.022206	 9.138067	-0.343764	-0.206060	 9.498024	-0.528856	-122.448300	 22.182530	 101.748300	 26.762790	 2.647890	-0.231049	 44.665860	-3.273947	 17.439540	 4.004416	-14.773460	 0.672761	-6.580301	 5.266122	 0.000000	 0.000000	 0.000000	 0.000000	 0.000000	 0.000000	 0.000000	 7.815272	 40.274040	-4.465564	-2.971689	-42.584100	-0.281358	 129.492200	 24.204140	-105.480200	-31.979450	 4.328490	 17.068450	-26.884120	 0.618107	-27.186910	-21.231200	-18.183630	-8.535834	 15.208500	 5.323790	 0.000000	 0.000000	 0.000000	 0.000000	 0.000000	 0.000000	 0.000000
 0.475281	 1.132919	 0.599073	-6.814233	-36.311490	-177.251000	 137.116200	 65.604770	 40.072230	 16.854510	-47.502640	 27.550980	 18.305430	 75.808160	-33.009830	 1.292262	 28.425850	-2.713146	-176.327600	 76.130340	-14.224050	-15.541460	-54.345730	-23.905400	-28.751250	 77.286560	 40.521350	-1.288183	 28.361890	 2.710176	-0.326312	 15.191270	-0.514992	-0.812528	 10.244510	-0.871124	-0.827256	 9.088234	-0.856273	-125.797300	 25.668380	 104.567400	 27.371030	-3.954022	 3.303591	 42.278860	-3.133405	 6.688037	 5.315657	-15.535960	 5.167367	-6.580301	 5.266122	 0.000000	 0.000000	 0.000000	 0.000000	 0.000000	 0.000000	 0.000000	 9.195649	 41.492750	-4.809194	-4.125588	-45.512240	-0.415864	 130.848600	 26.274100	-107.183000	-35.288990	-1.280352	 17.488760	-24.003860	 0.555999	-22.363260	-24.514430	-19.471740	-11.040340	 15.208500	 5.323790	 0.000000	 0.000000	 0.000000	 0.000000	 0.000000	 0.000000	 0.000000
 0.453478	 1.082996	 0.626041	-7.339011	-30.198980	-179.255800	 133.200100	 65.810350	 42.035840	 24.327220	-57.182640	 29.233030	 4.458360	 79.365160	-16.687880	 1.292262	 28.425850	-2.713146	-163.688600	 75.024290	-29.008630	-21.323090	-62.139790	-30.059370	-40.056710	 79.658750	 52.242590	-1.288183	 28.361890	 2.710176	 0.023116	 12.757220	-1.230152	-0.253325	 14.608820	-1.770610	-1.245438	 0.739861	-1.702169	-121.510700	 28.081750	 104.611500	 28.531360	 5.031750	 10.770890	 45.499990	-3.321749	-39.010010	 25.633400	-18.585880	 19.758310	-6.580301	 5.266122	 0.000000	 0.000000	 0.000000	 0.000000	 0.000000	 0.000000	 0.000000	 2.557178	 18.191780	-1.472733	-1.599172	-29.888160	-0.540165	 124.541100	 27.038440	-105.432900	-34.606000	 1.443113	 5.247962	-37.368270	 0.829637	-3.719900	-33.285550	-26.613360	-18.838470	 15.208500	 5.323790	 0.000000	 0.000000	 0.000000	 0.000000	 0.000000	 0.000000	 0.000000
 0.446738	 1.135707	 0.614686	-5.131694	-26.268100	-177.610200	 147.246700	 57.572850	 31.638890	 17.578790	-48.664680	 23.684420	 8.974652	 76.119800	-19.940480	 1.292262	 28.425850	-2.713146	-172.047800	 64.797420	-20.019840	-15.041690	-53.475620	-24.987800	-36.157660	 76.254860	 47.695870	-1.288183	 28.361890	 2.710176	 0.483391	 10.525460	-1.265763	 0.466810	 15.153400	-1.491632	-0.522871	-3.676671	-1.701890	-113.958300	 22.644050	 99.853020	 29.580610	 18.587620	 8.290505	 49.806610	-3.556935	-36.053490	 29.237080	-18.621020	 19.005610	-6.580301	 5.266122	 0.000000	 0.000000	 0.000000	 0.000000	 0.000000	 0.000000	 0.000000	 0.308071	 0.998508	-0.989169	-0.448485	-14.521610	-0.658414	 119.812900	 23.238260	-102.020700	-33.677190	 10.096280	 1.983781	-44.147100	 0.952030	-4.687240	-37.033030	-29.400170	-21.124500	 15.208500	 5.323790	 0.000000	 0.000000	 0.000000	 0.000000	 0.000000	 0.000000	 0.000000
